<svg width="4" height="5" viewBox="0 0 4 5" fill="none" xmlns="http://www.w3.org/2000/svg">
<path id="Vector" d="M2 4.5C1.72333 4.5 1.46333 4.44747 1.22 4.3424C0.976667 4.23733 0.765 4.09487 0.585 3.915C0.405 3.735 0.262533 3.52333 0.1576 3.28C0.0526667 3.03667 0.000133333 2.77667 0 2.5C0 2.22333 0.0525333 1.96333 0.1576 1.72C0.262667 1.47667 0.405133 1.265 0.585 1.085C0.765 0.905 0.976667 0.762533 1.22 0.6576C1.46333 0.552667 1.72333 0.500133 2 0.5C2.27667 0.5 2.53667 0.552533 2.78 0.6576C3.02333 0.762667 3.235 0.905133 3.415 1.085C3.595 1.265 3.73753 1.47667 3.8426 1.72C3.94767 1.96333 4.00013 2.22333 4 2.5C4 2.77667 3.94747 3.03667 3.8424 3.28C3.73733 3.52333 3.59487 3.735 3.415 3.915C3.235 4.095 3.02333 4.23753 2.78 4.3426C2.53667 4.44767 2.27667 4.50013 2 4.5Z" fill="white"/>
</svg>
