<svg width="8" height="9" viewBox="0 0 8 9" fill="none" xmlns="http://www.w3.org/2000/svg">
<path id="Vector" d="M7.56 0.683655H0.44C0.323305 0.683655 0.211389 0.730012 0.128873 0.812528C0.0463571 0.895044 0 1.00696 0 1.12365V8.24365C0 8.36035 0.0463571 8.47227 0.128873 8.55478C0.211389 8.6373 0.323305 8.68365 0.44 8.68365H4.272V5.58365H3.232V4.38365H4.272V3.48365C4.25046 3.27236 4.2754 3.05891 4.34509 2.85827C4.41477 2.65763 4.52751 2.47467 4.67539 2.32222C4.82327 2.16977 5.00271 2.05151 5.20113 1.97575C5.39955 1.89999 5.61214 1.86856 5.824 1.88365C6.13533 1.88174 6.44651 1.89777 6.756 1.93165V3.01165H6.12C5.616 3.01165 5.52 3.25165 5.52 3.59965V4.37165H6.72L6.564 5.57165H5.52V8.68365H7.56C7.61778 8.68365 7.675 8.67227 7.72838 8.65016C7.78176 8.62805 7.83027 8.59564 7.87113 8.55478C7.91199 8.51392 7.9444 8.46542 7.96651 8.41204C7.98862 8.35865 8 8.30144 8 8.24365V1.12365C8 1.06587 7.98862 1.00866 7.96651 0.955274C7.9444 0.901891 7.91199 0.853386 7.87113 0.812528C7.83027 0.77167 7.78176 0.73926 7.72838 0.717148C7.675 0.695036 7.61778 0.683655 7.56 0.683655Z" fill="white"/>
</svg>
