<svg width="15" height="17" viewBox="0 0 15 17" fill="none" xmlns="http://www.w3.org/2000/svg">
<path d="M9.57857 1.00285C9.17143 1.04571 8.78571 1.32428 8.57143 1.73142C8.29286 2.28856 6.23571 6.42428 5.82857 6.83142C5.42143 7.23856 4.88571 7.43142 4.28571 7.43142V16.0028H11.7857C12.2357 16.0028 12.6214 15.7243 12.7929 15.3386C12.7929 15.3386 15 9.10285 15 8.50285C15 7.90285 14.5286 7.43142 13.9286 7.43142H10.7143C10.1143 7.43142 9.64286 6.89571 9.64286 6.35999C9.64286 5.82428 10.4786 2.97428 10.65 2.41714C10.8214 1.85999 10.5429 1.25999 9.98571 1.06714C9.83571 1.02428 9.72857 0.981422 9.57857 1.00285ZM0 7.43142V16.0028H2.14286V7.43142H0Z" fill="white"/>
</svg>
