<svg width="6" height="10" viewBox="0 0 6 10" fill="none" xmlns="http://www.w3.org/2000/svg">
<path id="Vector" d="M6 3.65C6 3.23634 5.9224 2.82672 5.77164 2.44455C5.62087 2.06237 5.3999 1.71512 5.12132 1.42261C4.84274 1.13011 4.51203 0.898082 4.14805 0.739779C3.78407 0.581477 3.39397 0.5 3 0.5C2.60603 0.5 2.21593 0.581477 1.85195 0.739779C1.48797 0.898082 1.15726 1.13011 0.87868 1.42261C0.600104 1.71512 0.379125 2.06237 0.228361 2.44455C0.0775972 2.82672 -5.87054e-09 3.23634 0 3.65C0 4.27415 0.175286 4.85465 0.473571 5.34425H0.470143L3 9.5L5.52986 5.34425H5.52686C5.8358 4.83871 6.00002 4.25067 6 3.65ZM3 5C2.65901 5 2.33198 4.85777 2.09086 4.60459C1.84974 4.35142 1.71429 4.00804 1.71429 3.65C1.71429 3.29196 1.84974 2.94858 2.09086 2.69541C2.33198 2.44223 2.65901 2.3 3 2.3C3.34099 2.3 3.66802 2.44223 3.90914 2.69541C4.15026 2.94858 4.28571 3.29196 4.28571 3.65C4.28571 4.00804 4.15026 4.35142 3.90914 4.60459C3.66802 4.85777 3.34099 5 3 5Z" fill="white"/>
</svg>
