<svg width="82" height="21" viewBox="0 0 82 21" fill="none" xmlns="http://www.w3.org/2000/svg">
<path d="M10.864 1.94C10.92 1.856 11.004 1.772 11.06 1.688L11.228 1.464C11.48 1.212 11.704 1.24 11.9 1.548C11.984 1.716 12.04 1.94 12.04 2.192C12.04 2.668 12.012 3.144 11.956 3.592C11.9 4.04 11.816 4.488 11.76 4.936C11.592 6.196 11.368 7.428 11.144 8.66C10.892 9.892 10.696 11.124 10.528 12.356C10.416 13.028 10.332 13.672 10.276 14.344C10.22 15.016 10.136 15.66 10.08 16.304C10.052 16.472 10.024 16.612 10.024 16.752C10.024 16.92 9.996 17.06 9.968 17.2C9.94 17.368 9.912 17.508 9.884 17.62C9.828 17.76 9.744 17.844 9.576 17.9C9.38 17.956 9.212 17.984 9.044 17.984C8.876 17.984 8.736 17.928 8.596 17.76C8.54 17.732 8.512 17.704 8.456 17.648C8.4 17.592 8.344 17.564 8.316 17.508C7.812 17.144 7.588 16.612 7.7 15.912C7.784 15.072 7.868 14.26 7.98 13.42C8.092 12.608 8.204 11.768 8.372 10.928L8.54 9.976C8.596 9.668 8.652 9.36 8.736 9.024C8.736 8.968 8.736 8.94 8.764 8.884C8.764 8.828 8.764 8.772 8.736 8.688C8.624 8.772 8.568 8.856 8.568 8.94C8.54 9.052 8.512 9.136 8.484 9.22C7.924 10.62 7.336 12.02 6.776 13.392C6.216 14.764 5.628 16.136 5.04 17.536C4.9 17.844 4.76 18.124 4.648 18.404C4.508 18.684 4.34 18.936 4.172 19.188C3.696 19.916 3.08 20.056 2.324 19.664C2.156 19.58 1.96 19.496 1.792 19.384C1.624 19.3 1.456 19.188 1.316 19.02C1.008 18.74 0.784 18.432 0.644 18.096C0.504 17.76 0.42 17.396 0.364 17.004C0.28 16.556 0.252 16.08 0.28 15.632C0.308 15.184 0.364 14.736 0.42 14.288C0.532 13.336 0.672 12.412 0.868 11.488C1.036 10.564 1.288 9.64 1.596 8.716C1.96 7.624 2.38 6.56 2.856 5.524C3.304 4.488 3.892 3.48 4.62 2.528C4.844 2.248 5.068 1.968 5.348 1.716C5.6 1.492 5.88 1.268 6.188 1.044C6.524 0.819998 6.888 0.651999 7.336 0.568C7.784 0.511999 8.204 0.511999 8.624 0.568C9.044 0.623999 9.436 0.763999 9.828 0.987999C10.192 1.212 10.5 1.464 10.724 1.8L10.864 1.94ZM3.052 18.348C3.192 18.264 3.304 18.152 3.388 18.04L3.612 17.704C3.976 17.144 4.312 16.556 4.62 15.94C4.9 15.324 5.208 14.708 5.488 14.092C6.328 12.3 7.112 10.48 7.868 8.632C8.624 6.812 9.408 4.992 10.22 3.144C10.332 2.892 10.36 2.668 10.332 2.472C10.304 2.304 10.22 2.108 10.08 1.884C9.856 1.576 9.576 1.38 9.268 1.324C8.932 1.268 8.624 1.324 8.316 1.492C8.036 1.66 7.784 1.828 7.56 2.024C7.336 2.248 7.14 2.472 6.972 2.724C6.244 3.648 5.684 4.628 5.236 5.636C4.788 6.644 4.368 7.708 4.032 8.772C3.808 9.5 3.612 10.2 3.472 10.9C3.332 11.628 3.22 12.328 3.136 13.056C3.024 13.784 2.968 14.512 2.912 15.24C2.856 15.968 2.856 16.696 2.94 17.424C2.94 17.592 2.94 17.732 2.968 17.872C2.996 18.04 3.024 18.18 3.052 18.348ZM17.7772 11.656C17.5532 11.992 17.3852 12.3 17.2172 12.58C17.0492 12.888 16.8812 13.196 16.7412 13.476C16.5732 13.812 16.3492 13.98 16.0412 13.98C15.9012 14.036 15.7892 14.008 15.7052 13.952C15.3972 13.784 15.1172 13.56 14.8932 13.336C14.6412 13.112 14.5012 12.804 14.5012 12.356C14.3612 12.524 14.2492 12.692 14.1932 12.86C14.1372 13.028 14.0532 13.196 13.9972 13.336C13.9132 13.56 13.8292 13.756 13.7732 13.952C13.7172 14.176 13.6332 14.372 13.5492 14.568C13.4372 14.792 13.2972 14.96 13.1292 15.016C12.9332 15.1 12.7372 15.072 12.5692 14.932C12.2052 14.736 11.9252 14.484 11.7012 14.204C11.5612 14.036 11.4772 13.868 11.4492 13.672C11.4212 13.504 11.4212 13.308 11.4772 13.084C11.5612 12.468 11.7012 11.88 11.8972 11.292C12.0932 10.704 12.3452 10.144 12.6252 9.584C12.7372 9.332 12.8492 9.164 12.9612 9.108C13.0732 9.052 13.2132 9.052 13.4092 9.108C13.8572 9.22 14.1372 9.528 14.1932 9.976C14.1932 10.144 14.1652 10.284 14.1372 10.396C14.1092 10.536 14.1092 10.704 14.1092 10.9C14.2212 10.732 14.3332 10.592 14.4452 10.452C14.5572 10.34 14.6412 10.2 14.7532 10.06C14.8372 9.948 14.9212 9.808 15.0052 9.696C15.0612 9.584 15.1452 9.472 15.2572 9.36C15.4532 9.136 15.6772 9.052 15.9572 9.108C16.2372 9.164 16.4052 9.36 16.5172 9.64C16.6012 9.976 16.6572 10.256 16.6572 10.536V11.012C16.7412 10.984 16.7972 10.928 16.8532 10.872C16.9092 10.816 16.9372 10.76 16.9932 10.676C17.3012 10.256 17.6092 9.836 17.9172 9.388C18.2252 8.968 18.5612 8.548 18.9252 8.128C19.0092 8.044 19.0932 7.96 19.2052 7.876C19.2892 7.82 19.4012 7.764 19.5692 7.764C19.7932 7.792 20.0172 7.876 20.1852 8.044C20.3532 8.212 20.4372 8.408 20.4932 8.66C20.5212 8.94 20.5212 9.22 20.4932 9.5C20.4652 9.78 20.4372 10.032 20.3812 10.284C20.2692 10.732 20.1852 11.152 20.1012 11.6C20.0172 12.048 19.9332 12.468 19.8492 12.888C19.8212 13.028 19.7932 13.168 19.7932 13.28C19.7932 13.392 19.7932 13.532 19.7932 13.644C19.7932 13.924 19.9052 13.98 20.1292 13.84C20.1852 13.812 20.2132 13.784 20.2692 13.756C20.3252 13.728 20.3812 13.7 20.4372 13.644C20.7452 13.392 21.0252 13.112 21.2772 12.832C21.5292 12.552 21.7532 12.216 21.9772 11.824C22.0052 11.74 22.0612 11.656 22.1172 11.6C22.1732 11.544 22.2572 11.516 22.3692 11.516C22.6212 11.572 22.7052 11.684 22.6492 11.88C22.4532 12.384 22.2292 12.832 21.9772 13.224C21.7252 13.644 21.3892 14.008 20.9692 14.316C20.8292 14.428 20.6892 14.484 20.5772 14.54C20.4372 14.596 20.2972 14.624 20.1852 14.68C20.0732 14.736 19.9332 14.736 19.8212 14.736C19.7092 14.736 19.5972 14.736 19.5132 14.68C19.0092 14.484 18.6172 14.232 18.3092 13.924C17.9732 13.644 17.8052 13.168 17.7772 12.496V11.656ZM25.627 10.34C25.879 10.9 25.991 11.432 25.935 11.964C25.879 12.496 25.711 13.028 25.459 13.532C25.319 13.812 25.095 14.064 24.787 14.288C24.507 14.484 24.255 14.596 23.975 14.624C23.695 14.68 23.415 14.596 23.135 14.372L23.107 14.344C22.491 14.036 22.071 13.672 21.847 13.252C21.623 12.832 21.595 12.188 21.763 11.348C21.819 11.068 21.931 10.816 22.043 10.564C22.155 10.312 22.323 10.06 22.491 9.78C22.715 9.416 23.023 9.192 23.387 9.108C23.723 9.052 24.087 9.108 24.479 9.304C24.815 9.472 25.179 9.584 25.515 9.64C25.851 9.696 26.215 9.696 26.607 9.64C26.747 9.64 26.915 9.612 27.083 9.584C27.251 9.584 27.391 9.556 27.559 9.556C27.643 9.556 27.727 9.556 27.811 9.556C27.867 9.584 27.923 9.668 27.923 9.78C27.923 10.004 27.839 10.116 27.643 10.172C27.447 10.228 27.251 10.256 27.083 10.284C26.887 10.312 26.691 10.312 26.495 10.284H26.047C25.907 10.284 25.767 10.312 25.627 10.34ZM23.891 13.252L23.919 13.28C23.919 13.28 23.947 13.28 23.975 13.28H24.003C24.031 13.28 24.059 13.252 24.059 13.252C24.059 13.252 24.087 13.224 24.143 13.196C24.507 12.916 24.759 12.608 24.899 12.216C25.011 11.852 25.095 11.46 25.151 11.012C25.151 10.76 25.067 10.564 24.927 10.396C24.759 10.2 24.647 10.2 24.535 10.424C24.143 11.292 23.919 12.244 23.891 13.252ZM26.819 13.308C26.847 12.244 27.099 11.236 27.547 10.312C27.799 9.836 28.163 9.724 28.639 10.004C28.779 10.116 28.919 10.228 29.031 10.34C29.143 10.48 29.199 10.648 29.227 10.872C29.367 10.76 29.479 10.62 29.535 10.48C29.591 10.34 29.647 10.2 29.759 10.032C29.955 9.724 30.151 9.416 30.347 9.08C30.515 8.744 30.739 8.436 31.019 8.128C31.047 8.1 31.075 8.072 31.103 8.044C31.103 8.016 31.131 7.988 31.187 7.932C31.383 7.708 31.607 7.624 31.831 7.624C32.055 7.652 32.251 7.792 32.419 8.044C32.615 8.38 32.727 8.688 32.727 9.024C32.755 9.724 32.727 10.368 32.615 10.928C32.559 11.264 32.531 11.572 32.531 11.88C32.531 12.188 32.531 12.496 32.559 12.832C32.811 12.72 33.035 12.552 33.203 12.384C33.371 12.216 33.539 12.02 33.707 11.796C33.791 11.656 33.847 11.572 33.903 11.572C33.959 11.572 34.071 11.628 34.239 11.712C33.959 12.272 33.651 12.748 33.287 13.14C32.783 13.7 32.195 13.756 31.551 13.308C30.879 12.86 30.543 12.244 30.599 11.46C30.599 11.32 30.599 11.152 30.627 10.984C30.627 10.816 30.627 10.592 30.571 10.368C30.459 10.536 30.403 10.704 30.347 10.816C30.291 10.928 30.235 11.068 30.179 11.18C29.899 11.796 29.675 12.384 29.479 12.972C29.255 13.588 29.087 14.204 28.919 14.82C28.751 15.352 28.415 15.492 27.911 15.212C27.155 14.82 26.791 14.176 26.819 13.308ZM35.5335 12.188C35.5055 12.384 35.5055 12.58 35.5335 12.748C35.5615 13.028 35.6175 13.196 35.6735 13.252C35.7295 13.336 35.9255 13.336 36.2335 13.224C36.5695 13.14 36.9055 13 37.2415 12.832C37.5495 12.664 37.8295 12.412 38.1095 12.132C38.2215 12.02 38.3055 11.88 38.4175 11.768C38.5295 11.656 38.6135 11.488 38.7255 11.32C38.8095 11.152 38.9495 11.096 39.1175 11.152C39.2295 11.208 39.2575 11.292 39.2575 11.348C39.2575 11.432 39.2295 11.516 39.2015 11.6C38.9775 12.048 38.7255 12.468 38.4455 12.86C38.1655 13.252 37.8015 13.588 37.3815 13.868C36.9895 14.12 36.5975 14.232 36.2055 14.204C35.8135 14.204 35.4215 14.064 35.0295 13.84C34.9175 13.784 34.8335 13.728 34.7495 13.644C34.6655 13.588 34.5815 13.504 34.4975 13.448C33.9375 13.028 33.6575 12.524 33.6575 11.936C33.6295 11.348 33.7695 10.844 34.1055 10.396C34.2735 10.172 34.4415 9.948 34.6375 9.724C34.8335 9.528 35.0575 9.36 35.3095 9.192C35.6175 8.996 35.9535 8.912 36.3455 8.968C36.7375 9.024 37.0455 9.192 37.2975 9.472C37.4935 9.696 37.5495 9.976 37.4655 10.284C37.3535 10.62 37.2135 10.9 37.0735 11.18C36.9055 11.46 36.7095 11.684 36.4855 11.88C36.2055 12.16 35.8975 12.244 35.5335 12.188ZM35.6455 11.796C35.9255 11.572 36.1775 11.32 36.3455 11.012C36.5135 10.732 36.5695 10.368 36.5695 9.976C36.3455 10.256 36.1215 10.536 35.9535 10.816C35.7855 11.096 35.6735 11.432 35.6455 11.796ZM41.2681 10.228H41.6321C41.8561 10.228 42.0241 10.312 42.1921 10.48C42.3321 10.648 42.4161 10.816 42.4161 11.04C42.4161 11.208 42.3321 11.292 42.1921 11.292C41.7441 11.348 41.2961 11.404 40.8481 11.488C40.4001 11.572 39.9521 11.6 39.5041 11.544C39.3081 11.544 39.1401 11.432 39.0281 11.208C38.9161 11.012 38.8881 10.816 39.0001 10.648C39.0561 10.536 39.1401 10.48 39.3081 10.424C39.6441 10.396 39.9521 10.34 40.2881 10.284C40.6241 10.228 40.9321 10.228 41.2681 10.228ZM45.8673 11.32C45.7833 11.432 45.7273 11.516 45.7273 11.572C45.7273 11.656 45.6993 11.74 45.6713 11.824C45.5313 12.44 45.4193 13.028 45.3633 13.616C45.2793 14.232 45.1953 14.82 45.1113 15.408C45.0833 15.492 45.0553 15.576 45.0553 15.632C45.0553 15.716 45.0273 15.8 44.9993 15.884C44.8873 16.22 44.7193 16.416 44.4673 16.472C44.2153 16.528 43.9633 16.444 43.7113 16.22C43.6553 16.164 43.5993 16.136 43.5433 16.08C43.4873 16.024 43.4313 15.968 43.3753 15.912C43.0393 15.604 42.8433 15.212 42.8433 14.708C42.8433 14.26 42.8713 13.812 42.9273 13.364C42.9833 12.916 43.0673 12.496 43.1793 12.048C43.3753 10.984 43.6273 9.948 43.9073 8.94C44.1873 7.932 44.4673 6.896 44.7753 5.832C44.8873 5.44 45.0273 5.02 45.1953 4.628C45.3633 4.236 45.5313 3.844 45.6993 3.452C45.6993 3.424 45.7273 3.396 45.7273 3.368C45.7273 3.368 45.7273 3.34 45.7553 3.312C45.8113 3.256 45.8393 3.172 45.8673 3.088C45.8953 3.004 45.9793 2.948 46.0913 2.948C46.2033 2.976 46.2873 3.032 46.3433 3.116C46.3993 3.2 46.4273 3.284 46.4833 3.368C46.5393 3.536 46.5673 3.704 46.5953 3.872C46.5953 4.04 46.6233 4.208 46.6233 4.376C46.5953 4.796 46.5673 5.188 46.5673 5.58C46.5393 5.972 46.4833 6.392 46.4273 6.784V7.064C46.5673 6.84 46.6793 6.616 46.7633 6.392C46.8193 6.168 46.9033 5.972 47.0153 5.748C47.2673 5.16 47.5473 4.572 47.8273 3.984C48.1073 3.424 48.3873 2.836 48.7233 2.248C48.9753 1.772 49.3393 1.324 49.7873 0.903999C50.0673 0.651999 50.3473 0.511999 50.5993 0.483999C50.8233 0.483999 51.1033 0.595999 51.4393 0.848C51.7193 1.1 51.9433 1.38 52.0833 1.688C52.1953 2.024 52.3073 2.36 52.3633 2.696C52.5313 3.76 52.5033 4.712 52.2233 5.608C51.9433 6.504 51.4673 7.372 50.8233 8.156C50.5153 8.548 50.1793 8.856 49.8153 9.136C49.4513 9.416 49.0873 9.696 48.7233 9.948C48.6673 10.004 48.6393 10.032 48.5833 10.032C48.5273 10.06 48.4993 10.088 48.4713 10.116C48.4993 10.228 48.5553 10.284 48.6113 10.284C48.6673 10.284 48.7513 10.312 48.8073 10.34C50.5433 11.152 51.6913 12.44 52.2513 14.204C52.5033 15.044 52.5033 15.828 52.2233 16.556C51.9433 17.284 51.4673 17.872 50.8233 18.32C49.5913 19.104 48.1913 19.608 46.6793 19.804C45.7833 19.944 44.8873 19.832 44.0193 19.496C43.3473 19.272 42.8433 18.824 42.5633 18.18L42.3393 17.76C42.2833 17.648 42.2273 17.508 42.1713 17.34C42.1433 17.312 42.1433 17.256 42.1433 17.2C42.1433 17.144 42.1433 17.088 42.1993 17.032C42.2273 17.004 42.2833 17.004 42.3393 17.004C42.3953 17.004 42.4513 17.032 42.5073 17.032C42.8993 17.2 43.3193 17.312 43.7113 17.368C44.1033 17.424 44.5233 17.424 44.9153 17.368C45.3073 17.312 45.7273 17.256 46.1193 17.144C46.5113 17.032 46.9313 16.92 47.3233 16.78C47.6593 16.696 47.9953 16.556 48.3313 16.388C48.6393 16.22 48.9473 16.052 49.2553 15.828C49.5633 15.604 49.8433 15.352 50.0673 15.072C50.2913 14.792 50.4873 14.428 50.5993 14.036C50.7393 13.588 50.6553 13.224 50.3473 12.944C49.7873 12.328 49.0873 11.964 48.2753 11.796C47.8553 11.74 47.4353 11.684 47.0433 11.628C46.6233 11.572 46.2313 11.46 45.8673 11.32ZM46.7353 8.52C47.6313 8.044 48.4153 7.484 49.0313 6.868C49.6473 6.252 50.1233 5.496 50.4593 4.656C50.6553 4.124 50.8233 3.592 50.9353 3.032C51.0473 2.472 51.0193 1.912 50.9073 1.296C50.7953 1.296 50.6833 1.296 50.6273 1.352C50.5713 1.408 50.5153 1.464 50.4593 1.492C49.8433 2.108 49.3393 2.78 48.9473 3.508C48.7793 3.872 48.5833 4.236 48.4153 4.572C48.2473 4.908 48.0793 5.272 47.9393 5.608L47.3233 7.008C47.0993 7.484 46.9033 7.988 46.7353 8.52ZM54.0179 12.188C53.9899 12.384 53.9899 12.58 54.0179 12.748C54.0459 13.028 54.1019 13.196 54.1579 13.252C54.2139 13.336 54.4099 13.336 54.7179 13.224C55.0539 13.14 55.3899 13 55.7259 12.832C56.0339 12.664 56.3139 12.412 56.5939 12.132C56.7059 12.02 56.7899 11.88 56.9019 11.768C57.0139 11.656 57.0979 11.488 57.2099 11.32C57.2939 11.152 57.4339 11.096 57.6019 11.152C57.7139 11.208 57.7419 11.292 57.7419 11.348C57.7419 11.432 57.7139 11.516 57.6859 11.6C57.4619 12.048 57.2099 12.468 56.9299 12.86C56.6499 13.252 56.2859 13.588 55.8659 13.868C55.4739 14.12 55.0819 14.232 54.6899 14.204C54.2979 14.204 53.9059 14.064 53.5139 13.84C53.4019 13.784 53.3179 13.728 53.2339 13.644C53.1499 13.588 53.0659 13.504 52.9819 13.448C52.4219 13.028 52.1419 12.524 52.1419 11.936C52.1139 11.348 52.2539 10.844 52.5899 10.396C52.7579 10.172 52.9259 9.948 53.1219 9.724C53.3179 9.528 53.5419 9.36 53.7939 9.192C54.1019 8.996 54.4379 8.912 54.8299 8.968C55.2219 9.024 55.5299 9.192 55.7819 9.472C55.9779 9.696 56.0339 9.976 55.9499 10.284C55.8379 10.62 55.6979 10.9 55.5579 11.18C55.3899 11.46 55.1939 11.684 54.9699 11.88C54.6899 12.16 54.3819 12.244 54.0179 12.188ZM54.1299 11.796C54.4099 11.572 54.6619 11.32 54.8299 11.012C54.9979 10.732 55.0539 10.368 55.0539 9.976C54.8299 10.256 54.6059 10.536 54.4379 10.816C54.2699 11.096 54.1579 11.432 54.1299 11.796ZM58.3804 13.308C58.4924 13.28 58.5764 13.224 58.6324 13.112C58.6884 13.028 58.7724 12.944 58.8284 12.832C59.1644 12.412 59.5004 11.964 59.8084 11.488C60.1164 11.04 60.3964 10.536 60.6764 10.032C60.7044 9.976 60.7324 9.892 60.7884 9.836C60.9004 9.612 61.0124 9.472 61.0684 9.416C61.1244 9.388 61.2364 9.388 61.4044 9.416C61.9084 9.528 62.1604 9.78 62.2164 10.2C62.2444 10.592 62.2444 10.928 62.1884 11.208C62.0204 11.936 62.0484 12.636 62.2164 13.308C62.2444 13.448 62.2724 13.532 62.3004 13.532C62.3284 13.532 62.3844 13.504 62.4964 13.448C62.6364 13.392 62.7484 13.308 62.8604 13.196C62.9724 13.084 63.0564 12.972 63.1684 12.86C63.3644 12.636 63.5324 12.384 63.7004 12.132C63.8684 11.908 64.0084 11.656 64.1484 11.376C64.1484 11.32 64.1764 11.292 64.2044 11.236C64.2044 11.18 64.2324 11.124 64.2884 11.068C64.4004 10.956 64.5124 10.928 64.6524 11.012C64.7924 11.068 64.8484 11.18 64.7924 11.32C64.6244 11.768 64.4564 12.216 64.2884 12.636C64.0924 13.084 63.8684 13.476 63.6164 13.868C63.3364 14.288 63.0004 14.54 62.5524 14.596C62.2724 14.652 61.9924 14.596 61.7124 14.4C61.3484 14.176 61.0404 13.924 60.7884 13.644C60.5084 13.364 60.3684 13.028 60.3404 12.58C60.2284 12.58 60.1724 12.58 60.1724 12.636C60.1444 12.692 60.1164 12.72 60.1164 12.748C59.8924 13.084 59.6964 13.392 59.5284 13.728C59.3604 14.064 59.1644 14.4 58.9404 14.708C58.7164 15.044 58.4084 15.212 58.0444 15.212C57.8764 15.212 57.7364 15.184 57.6244 15.128C56.7844 14.708 56.3924 13.98 56.4484 12.972C56.4764 12.692 56.5324 12.384 56.6164 12.104C56.6724 11.824 56.7844 11.516 56.8964 11.236C57.1204 10.76 57.3444 10.284 57.6244 9.836C57.8764 9.388 58.2124 8.996 58.6044 8.604C58.9404 8.268 59.3324 8.1 59.8084 8.072C60.2844 8.044 60.7044 8.184 61.0964 8.464L61.2084 8.604L61.3484 8.716L61.4044 8.828C61.4044 8.884 61.4044 8.912 61.3764 8.968C61.3204 9.024 61.2644 9.024 61.1524 9.024C61.1244 9.024 61.0964 8.996 61.0684 8.996C61.0124 8.968 60.9564 8.94 60.9284 8.884C60.8724 8.828 60.8164 8.828 60.7324 8.828C60.6204 8.884 60.5364 8.968 60.4244 9.108C60.2004 9.276 60.0324 9.472 59.8924 9.752C59.5564 10.312 59.2764 10.844 58.9964 11.404C58.7164 11.964 58.5204 12.524 58.3804 13.112C58.3524 13.168 58.3524 13.224 58.3524 13.28L58.3804 13.308ZM66.3058 14.036C66.5298 13.98 66.7258 13.868 66.8938 13.7C67.0618 13.56 67.2018 13.392 67.3418 13.224C67.7058 12.776 68.0418 12.3 68.3778 11.796C68.7138 11.32 68.9658 10.788 69.1338 10.172C69.2458 9.724 69.4418 9.304 69.7218 8.912C69.7778 8.828 69.8618 8.744 69.9458 8.66C70.0018 8.604 70.1138 8.548 70.2818 8.548C70.6738 8.548 70.8978 8.8 70.9258 9.248C70.9258 9.584 70.9258 9.892 70.8978 10.228C70.8418 10.564 70.8138 10.9 70.7858 11.208C70.7298 11.6 70.6738 11.964 70.6458 12.328C70.5898 12.72 70.5898 13.084 70.6458 13.448C70.6458 13.504 70.6738 13.56 70.6738 13.616C70.6738 13.672 70.7018 13.728 70.7858 13.728C70.8698 13.756 70.9538 13.7 71.0378 13.588C71.1778 13.42 71.3178 13.28 71.4578 13.112C71.5698 12.944 71.7098 12.776 71.8498 12.608C71.9618 12.468 72.0458 12.356 72.1298 12.3C72.2418 12.188 72.3818 12.188 72.5498 12.3C72.6338 12.356 72.6618 12.44 72.6338 12.496C72.6058 12.552 72.5778 12.608 72.5498 12.664C72.4378 12.944 72.2978 13.196 72.1578 13.448C72.0178 13.728 71.8498 13.952 71.6258 14.148C71.1498 14.568 70.6178 14.68 70.0578 14.484C69.7218 14.372 69.4418 14.232 69.1898 14.064C68.9098 13.896 68.7418 13.588 68.6578 13.168C68.5458 13.336 68.4338 13.476 68.3498 13.588C68.2658 13.7 68.1818 13.84 68.0978 13.952C67.7618 14.428 67.2578 14.764 66.6138 14.96C66.4178 15.044 66.2498 15.072 66.1378 15.044C65.9138 15.044 65.7178 15.016 65.4938 14.904C65.2698 14.792 65.0458 14.68 64.8498 14.512C64.6538 14.344 64.4858 14.176 64.3458 13.98C64.1778 13.812 64.0938 13.616 64.0377 13.42C63.9817 13.196 63.9537 12.944 63.9537 12.72C63.9537 12.496 63.9817 12.244 64.0377 11.992C64.0938 11.628 64.1498 11.264 64.2338 10.872C64.3178 10.508 64.4298 10.144 64.5978 9.78C64.5978 9.78 64.5978 9.752 64.6258 9.724C64.8498 9.164 65.2138 8.94 65.7458 9.108C66.3338 9.276 66.5858 9.668 66.5018 10.284L66.1658 13.224C66.1378 13.476 66.1938 13.756 66.3058 14.036ZM70.9575 17.368C70.9015 16.948 70.9295 16.528 71.0135 16.108C71.0695 15.688 71.1535 15.268 71.2655 14.82C71.5175 13.756 71.7695 12.72 72.0215 11.656C72.2455 10.62 72.4975 9.556 72.7775 8.492C72.8895 8.072 72.9735 7.624 73.0855 7.176C73.1975 6.728 73.3095 6.308 73.4215 5.86C73.4495 5.692 73.4495 5.58 73.4215 5.524C73.3935 5.468 73.2815 5.468 73.0855 5.496C72.8055 5.524 72.5535 5.552 72.2735 5.58C71.9935 5.608 71.7415 5.608 71.4615 5.58C71.1815 5.58 70.9855 5.496 70.8175 5.328C70.6495 5.16 70.5655 4.908 70.6215 4.544C70.6215 4.488 70.6495 4.46 70.6775 4.404C70.6775 4.348 70.7335 4.348 70.8455 4.348C71.0135 4.404 71.1535 4.432 71.3215 4.404C71.4895 4.376 71.6295 4.348 71.7975 4.292C72.0495 4.264 72.3015 4.236 72.5815 4.18C72.8615 4.152 73.1415 4.124 73.4215 4.068C73.7575 4.068 73.9535 3.872 74.0095 3.536C74.0375 3.452 74.0655 3.368 74.0935 3.256C74.1215 3.144 74.1495 3.06 74.2055 2.948C74.2615 2.78 74.4015 2.752 74.5695 2.864C74.6535 2.92 74.7095 3.004 74.7655 3.088L74.8775 3.368C74.9335 3.592 74.9895 3.732 75.0455 3.788C75.1015 3.844 75.2415 3.844 75.4655 3.788C76.0815 3.732 76.7255 3.648 77.3415 3.592C77.9575 3.536 78.6015 3.508 79.2735 3.48C79.4135 3.48 79.5815 3.508 79.7495 3.508C79.9175 3.536 80.0575 3.564 80.2255 3.564C80.5055 3.592 80.7295 3.732 80.8415 3.956C80.9535 4.208 80.9815 4.432 80.9535 4.6C80.9255 4.768 80.8415 4.852 80.7015 4.88C80.5895 4.88 80.5055 4.908 80.4495 4.908C80.3935 4.908 80.3095 4.908 80.2255 4.908C79.3855 4.936 78.5175 4.992 77.6775 5.048C76.8375 5.104 75.9975 5.188 75.1575 5.272C74.9335 5.3 74.7935 5.412 74.7935 5.636C74.5415 7.092 74.3175 8.52 74.0935 9.92C73.8695 11.32 73.6455 12.748 73.4215 14.176C73.3095 14.904 73.1975 15.604 73.0855 16.332C72.9735 17.06 72.8895 17.76 72.8895 18.488C72.8335 18.768 72.8335 19.048 72.8895 19.3C72.8895 19.58 72.8335 19.748 72.6935 19.832C72.5255 19.944 72.3575 19.944 72.1335 19.832C71.4055 19.496 71.0135 18.936 70.9575 18.152V17.368ZM78.6004 12.468C78.4884 12.58 78.4044 12.664 78.3484 12.776C78.2924 12.888 78.2364 13.028 78.1804 13.14C78.0684 13.336 77.9564 13.532 77.8444 13.7C77.7324 13.868 77.5924 14.036 77.4804 14.204C76.9204 14.82 76.2764 14.932 75.5484 14.484C75.0164 14.176 74.6804 13.784 74.5124 13.336C74.3444 12.888 74.3164 12.412 74.4004 11.852C74.4564 11.432 74.5124 11.012 74.6244 10.564C74.7364 10.144 74.8484 9.724 75.0164 9.304C75.0724 9.136 75.1284 8.996 75.2124 8.856C75.2964 8.716 75.3804 8.576 75.4924 8.408C75.6044 8.24 75.8004 8.156 76.0244 8.184C76.4164 8.24 76.6964 8.38 76.8924 8.632C77.0884 8.912 77.1444 9.22 77.0884 9.584C77.0324 9.92 76.9484 10.228 76.8924 10.536C76.8084 10.844 76.7524 11.152 76.6964 11.46C76.6404 11.796 76.5844 12.132 76.5564 12.468C76.5284 12.804 76.5284 13.14 76.5844 13.476C76.7244 13.476 76.8364 13.448 76.8924 13.336C76.9484 13.252 77.0324 13.168 77.1444 13.084C77.6204 12.496 78.0684 11.824 78.4884 11.096C78.6844 10.788 78.8804 10.452 79.0484 10.116C79.2164 9.78 79.4124 9.472 79.6364 9.136C79.6924 9.024 79.7204 8.912 79.7764 8.8L79.8884 8.464C79.9444 8.24 80.1124 8.156 80.3644 8.212C80.8124 8.268 81.0644 8.52 81.1204 8.968C81.1484 9.36 81.1484 9.724 81.1484 10.088C81.1204 10.452 81.0924 10.816 81.0364 11.18C80.9244 12.048 80.7564 12.888 80.5604 13.728C80.3644 14.568 80.1124 15.38 79.8044 16.164C79.6364 16.556 79.4684 16.92 79.3004 17.256C79.1044 17.62 78.8804 17.956 78.6004 18.264C78.2924 18.628 77.9564 18.908 77.6204 19.132C77.3404 19.3 77.0604 19.356 76.7804 19.3C76.5004 19.244 76.2484 19.132 76.0804 18.908C75.9404 18.796 75.9404 18.656 76.0804 18.488C76.6964 17.592 77.2004 16.612 77.5364 15.604C77.8724 14.596 78.2364 13.56 78.6284 12.524C78.6284 12.524 78.6004 12.496 78.6004 12.468Z" fill="#DF0554"/>
</svg>
