<svg width="9" height="8" viewBox="0 0 9 8" fill="none" xmlns="http://www.w3.org/2000/svg">
<path id="Vector" d="M8.1 0H0.9C0.405 0 0.0045 0.405 0.0045 0.9L0 6.3C0 6.795 0.405 7.2 0.9 7.2H8.1C8.595 7.2 9 6.795 9 6.3V0.9C9 0.405 8.595 0 8.1 0ZM7.92 1.9125L4.7385 3.9015C4.5945 3.9915 4.4055 3.9915 4.2615 3.9015L1.08 1.9125C1.03488 1.88717 0.995364 1.85295 0.96385 1.8119C0.932336 1.77086 0.909478 1.72385 0.896659 1.67372C0.88384 1.62358 0.881326 1.57137 0.88927 1.52024C0.897215 1.46911 0.915451 1.42012 0.942877 1.37624C0.970302 1.33235 1.00635 1.29449 1.04883 1.26495C1.09131 1.2354 1.13934 1.21478 1.19002 1.20433C1.2407 1.19389 1.29298 1.19383 1.34368 1.20418C1.39438 1.21452 1.44246 1.23504 1.485 1.2645L4.5 3.15L7.515 1.2645C7.55754 1.23504 7.60562 1.21452 7.65632 1.20418C7.70702 1.19383 7.7593 1.19389 7.80998 1.20433C7.86066 1.21478 7.90869 1.2354 7.95117 1.26495C7.99365 1.29449 8.0297 1.33235 8.05712 1.37624C8.08455 1.42012 8.10279 1.46911 8.11073 1.52024C8.11867 1.57137 8.11616 1.62358 8.10334 1.67372C8.09052 1.72385 8.06766 1.77086 8.03615 1.8119C8.00464 1.85295 7.96512 1.88717 7.92 1.9125Z" fill="white"/>
</svg>
