<svg width="9" height="9" viewBox="0 0 9 9" fill="none" xmlns="http://www.w3.org/2000/svg">
<path id="Vector" fill-rule="evenodd" clip-rule="evenodd" d="M1.06054 0.286962C1.15896 0.18869 1.27715 0.112456 1.40726 0.0633132C1.53737 0.0141701 1.67644 -0.00676047 1.81525 0.00190862C1.95406 0.0105777 2.08945 0.0486485 2.21243 0.113598C2.33542 0.178548 2.44319 0.268893 2.52862 0.378646L3.53828 1.67573C3.72334 1.91366 3.78858 2.22359 3.71546 2.51608L3.40778 3.74792C3.39188 3.81172 3.39273 3.87855 3.41028 3.94192C3.42782 4.00529 3.46145 4.06305 3.50791 4.10959L4.88992 5.49161C4.93652 5.53816 4.99437 5.57185 5.05785 5.58939C5.12133 5.60694 5.18828 5.60774 5.25216 5.59173L6.48344 5.28406C6.62778 5.24797 6.77843 5.24516 6.92402 5.27586C7.0696 5.30655 7.2063 5.36994 7.32379 5.46124L8.62087 6.47033C9.08717 6.83313 9.12992 7.52217 8.71255 7.93897L8.13095 8.52058C7.71471 8.93682 7.09261 9.11962 6.51269 8.91544C5.0284 8.39319 3.68074 7.54346 2.56968 6.42927C1.45557 5.31838 0.605838 3.97092 0.0835123 2.48683C-0.120106 1.90747 0.0627004 1.28481 0.478937 0.868569L1.06054 0.286962Z" fill="white"/>
</svg>
