<svg width="8" height="10" viewBox="0 0 8 10" fill="none" xmlns="http://www.w3.org/2000/svg">
<path id="Vector" d="M6.34694 1.43878C5.99818 1.04062 5.80598 0.529302 5.80612 0H4.22959V6.32653C4.21743 6.66889 4.07289 6.99317 3.82641 7.23109C3.57993 7.46901 3.25074 7.60199 2.90816 7.60204C2.18367 7.60204 1.58163 7.0102 1.58163 6.27551C1.58163 5.39796 2.42857 4.7398 3.30102 5.0102V3.39796C1.54082 3.16327 0 4.53061 0 6.27551C0 7.97449 1.40816 9.18367 2.90306 9.18367C4.5051 9.18367 5.80612 7.88265 5.80612 6.27551V3.06633C6.44541 3.52543 7.21294 3.77176 8 3.77041V2.19388C8 2.19388 7.04082 2.2398 6.34694 1.43878Z" fill="white"/>
</svg>
