<svg width="15" height="14" viewBox="0 0 15 14" fill="none" xmlns="http://www.w3.org/2000/svg">
<path d="M0.9375 0C0.419733 0 0 0.419733 0 0.9375V0.9375C0 1.45527 0.419733 1.875 0.9375 1.875H14.0625C14.5803 1.875 15 1.45527 15 0.9375V0.9375C15 0.419733 14.5803 0 14.0625 0H0.9375ZM0.9375 5.56875C0.419733 5.56875 0 5.98848 0 6.50625V6.50625C0 7.02402 0.419733 7.44375 0.9375 7.44375H14.0625C14.5803 7.44375 15 7.02402 15 6.50625V6.50625C15 5.98848 14.5803 5.56875 14.0625 5.56875H0.9375ZM0.9375 11.1937C0.419733 11.1937 0 11.6135 0 12.1312V12.1312C0 12.649 0.419733 13.0687 0.9375 13.0687H14.0625C14.5803 13.0687 15 12.649 15 12.1312V12.1312C15 11.6135 14.5803 11.1937 14.0625 11.1937H0.9375Z" fill="#DF0554"/>
</svg>
