<svg width="17" height="17" viewBox="0 0 17 17" fill="none" xmlns="http://www.w3.org/2000/svg">
<path d="M16 7.66667V5.16667C16 4.72464 15.8244 4.30072 15.5118 3.98816C15.1993 3.67559 14.7754 3.5 14.3333 3.5H9.33333M9.33333 3.5L11.8333 6M9.33333 3.5L11.8333 1M1 9.33333V11.8333C1 12.2754 1.17559 12.6993 1.48816 13.0118C1.80072 13.3244 2.22464 13.5 2.66667 13.5H7.66667M7.66667 13.5L5.16667 11M7.66667 13.5L5.16667 16M1 1.83333C1 1.61232 1.0878 1.40036 1.24408 1.24408C1.40036 1.0878 1.61232 1 1.83333 1H5.16667C5.38768 1 5.59964 1.0878 5.75592 1.24408C5.9122 1.40036 6 1.61232 6 1.83333V5.16667C6 5.38768 5.9122 5.59964 5.75592 5.75592C5.59964 5.9122 5.38768 6 5.16667 6H1.83333C1.61232 6 1.40036 5.9122 1.24408 5.75592C1.0878 5.59964 1 5.38768 1 5.16667V1.83333ZM11 11.8333C11 11.6123 11.0878 11.4004 11.2441 11.2441C11.4004 11.0878 11.6123 11 11.8333 11H15.1667C15.3877 11 15.5996 11.0878 15.7559 11.2441C15.9122 11.4004 16 11.6123 16 11.8333V15.1667C16 15.3877 15.9122 15.5996 15.7559 15.7559C15.5996 15.9122 15.3877 16 15.1667 16H11.8333C11.6123 16 11.4004 15.9122 11.2441 15.7559C11.0878 15.5996 11 15.3877 11 15.1667V11.8333Z" stroke="white" stroke-width="1.5" stroke-linecap="round" stroke-linejoin="round"/>
</svg>
