<svg width="9" height="8" viewBox="0 0 9 8" fill="none" xmlns="http://www.w3.org/2000/svg">
<path id="Vector" d="M3.6 5.18365L5.9355 3.68365L3.6 2.18365V5.18365ZM8.802 1.26865C8.8605 1.50365 8.901 1.81865 8.928 2.21865C8.9595 2.61865 8.973 2.96365 8.973 3.26365L9 3.68365C9 4.77865 8.928 5.58365 8.802 6.09865C8.6895 6.54865 8.4285 6.83865 8.0235 6.96365C7.812 7.02865 7.425 7.07365 6.831 7.10365C6.246 7.13865 5.7105 7.15365 5.2155 7.15365L4.5 7.18365C2.6145 7.18365 1.44 7.10365 0.9765 6.96365C0.5715 6.83865 0.3105 6.54865 0.198 6.09865C0.1395 5.86365 0.099 5.54866 0.072 5.14865C0.0405 4.74865 0.027 4.40365 0.027 4.10365L0 3.68365C0 2.58865 0.072 1.78365 0.198 1.26865C0.3105 0.818655 0.5715 0.528655 0.9765 0.403655C1.188 0.338655 1.575 0.293655 2.169 0.263655C2.754 0.228655 3.2895 0.213655 3.7845 0.213655L4.5 0.183655C6.3855 0.183655 7.56 0.263655 8.0235 0.403655C8.4285 0.528655 8.6895 0.818655 8.802 1.26865Z" fill="white"/>
</svg>
